<?xml version="1.0" ?><!DOCTYPE svg  PUBLIC '-//W3C//DTD SVG 1.1//EN'  'http://www.w3.org/Graphics/SVG/1.1/DTD/svg11.dtd'><svg enable-background="new 0 0 841.89 595.28" height="595.28px" id="Layer_1" version="1.1" viewBox="0 0 841.89 595.28" width="841.89px" xml:space="preserve" xmlns="http://www.w3.org/2000/svg" xmlns:xlink="http://www.w3.org/1999/xlink"><g><path d="M715.767,296.822   c0,162.819-132.001,294.812-294.822,294.812c-162.822,0-294.822-131.992-294.822-294.812C126.122,133.992,258.123,2,420.944,2   C583.766,2,715.767,133.992,715.767,296.822z" fill="#FFFFFF" stroke="#C6C6C6" stroke-miterlimit="10" stroke-width="2"/><path d="M420.958,119.96c-97.672,0-176.866,79.172-176.866,176.862c0,72.419,43.543,134.634,105.869,161.982   c-0.498-12.365-0.084-27.19,3.067-40.604c3.407-14.375,22.761-96.394,22.761-96.394s-5.658-11.272-5.658-27.963   c0-26.194,15.221-45.769,34.135-45.769c16.067,0,23.841,12.066,23.841,26.538c0,16.164-10.321,40.354-15.609,62.75   c-4.438,18.765,9.413,34.064,27.89,34.064c33.514,0,56.076-43.019,56.076-94.021c0-38.753-26.097-67.759-73.58-67.759   c-53.643,0-87.06,39.996-87.06,84.672c0,15.421,4.547,26.279,11.656,34.696c3.279,3.869,3.746,5.412,2.529,9.845   c-0.824,3.279-2.767,11.097-3.591,14.19c-1.186,4.504-4.799,6.099-8.854,4.433c-24.708-10.073-36.215-37.131-36.215-67.553   c0-50.229,42.354-110.487,126.399-110.487c67.513,0,111.972,48.862,111.972,101.32c0,69.379-38.594,121.202-95.441,121.202   c-19.108,0-37.065-10.329-43.195-22.034c0,0-10.281,40.745-12.436,48.616c-3.763,13.616-11.101,27.26-17.812,37.88   c15.891,4.689,32.698,7.245,50.123,7.245c97.659,0,176.839-79.163,176.839-176.851C597.797,199.133,518.616,119.96,420.958,119.96z   " fill="#C6C6C6"/></g></svg>